<svg version="1.1" id="Layer_1" xmlns="http://www.w3.org/2000/svg" xmlns:xlink="http://www.w3.org/1999/xlink" x="0px" y="0px" width="100%" viewBox="0 0 940 940" enable-background="new 0 0 940 940" xml:space="preserve">
<path fill="#523084" opacity="1.000000" stroke="none" d="
M941.000000,428.000000 
	C941.000000,456.354218 941.000000,484.708466 940.579224,513.496643 
	C939.422302,519.388062 938.787415,524.861450 937.932495,530.300293 
	C934.408997,552.714905 930.298706,574.967834 924.264282,596.915710 
	C912.278381,640.509460 894.163696,681.375549 870.521790,719.738403 
	C854.052795,746.461975 834.978149,771.422302 813.184387,794.042480 
	C800.346130,807.367493 786.376282,819.641174 772.495850,831.913208 
	C755.052063,847.335632 735.798828,860.335449 716.019836,872.584717 
	C689.699280,888.885010 661.954285,902.329285 632.904724,912.840881 
	C595.301086,926.447937 556.634277,935.822205 516.635986,939.090454 
	C515.711487,939.165955 514.876648,940.338928 514.000000,941.000000 
	C485.645782,941.000000 457.291534,941.000000 428.503510,940.579224 
	C427.057922,939.774963 426.075653,939.193481 425.029968,939.037781 
	C409.071411,936.662109 393.035980,934.729919 377.155121,931.921570 
	C350.962189,927.289734 325.628510,919.297913 300.876495,909.781677 
	C276.202881,900.295715 252.500748,888.598816 229.778015,874.972229 
	C199.792679,856.990234 172.036240,836.043091 146.681839,812.031006 
	C127.785828,794.135437 110.757332,774.531616 95.034027,753.718628 
	C67.058426,716.687378 45.103928,676.398743 29.191263,632.923340 
	C15.441285,595.356689 6.165657,556.641052 2.909726,516.626953 
	C2.834758,515.705627 1.661152,514.873657 1.000001,514.000000 
	C1.000000,485.645782 1.000000,457.291534 1.420873,428.503418 
	C2.195811,427.557068 2.796846,427.076385 2.867463,426.527466 
	C4.275363,415.583923 4.901989,404.483185 7.135262,393.714661 
	C11.406257,373.120514 15.704980,352.458221 21.583893,332.288147 
	C31.399920,298.610138 45.733566,266.747253 63.244610,236.296478 
	C77.494423,211.516800 93.699203,188.079041 112.323593,166.492554 
	C124.839218,151.986389 138.398621,138.252182 152.524246,125.299355 
	C167.091522,111.941559 182.270691,99.057396 198.313904,87.542877 
	C232.496353,63.009464 269.529999,43.439362 309.146179,29.139042 
	C346.753815,15.563743 385.390991,6.173064 425.375336,2.909623 
	C426.296051,2.834476 427.127106,1.661108 428.000000,1.000002 
	C456.354218,1.000000 484.708466,1.000000 513.497559,1.420796 
	C519.389648,2.584069 524.905762,3.034058 530.293701,4.120125 
	C552.520081,8.600368 574.890869,12.541152 596.867249,18.043709 
	C631.717346,26.769625 664.600159,40.717140 696.124817,57.971947 
	C721.502747,71.862389 745.421021,87.811401 767.792236,106.167282 
	C785.090027,120.360420 801.983887,134.945068 816.510864,152.043991 
	C826.755188,164.102005 837.207947,176.011246 846.900330,188.504623 
	C875.329895,225.149872 896.932739,265.672363 912.821289,309.132141 
	C926.551453,346.688446 935.843628,385.377747 939.090515,425.375214 
	C939.165161,426.295746 940.338928,427.127045 941.000000,428.000000 
M393.479950,730.670532 
	C394.229797,729.673584 395.336853,728.782349 395.668457,727.661560 
	C397.212494,722.442871 398.473480,717.141174 399.967804,711.906799 
	C401.472839,706.634705 403.133514,701.406982 405.068420,695.031555 
	C405.789185,696.883179 406.074585,697.437866 406.224060,698.027100 
	C408.579468,707.311096 410.782227,716.637512 413.376404,725.853943 
	C413.878754,727.638733 415.893768,728.997681 418.060455,730.664551 
	C420.628815,730.609253 423.197144,730.553894 426.462341,730.524170 
	C427.605835,727.821472 429.045013,725.202576 429.838806,722.400757 
	C432.501099,713.003723 435.098938,703.581726 437.396881,694.090698 
	C439.021667,687.380066 440.120758,680.542175 441.567444,673.169373 
	C441.595734,672.768799 441.624023,672.368286 442.249298,671.515869 
	C443.344391,666.604309 444.439484,661.692688 445.653351,656.187622 
	C445.699219,655.786682 445.745087,655.385742 446.379791,654.542358 
	C447.397552,651.119141 448.504761,647.719482 449.411499,644.267090 
	C450.678925,639.441406 449.175934,637.799316 444.220886,638.467407 
	C440.193695,639.010315 439.359070,641.777954 439.435455,645.831970 
	C439.362701,646.226929 439.289917,646.621887 438.643463,647.475220 
	C436.127411,655.805237 433.485596,664.099976 431.141510,672.478149 
	C429.691040,677.662231 428.693298,682.973022 427.378815,688.819336 
	C427.345764,689.220032 427.312683,689.620667 426.732178,690.493347 
	C424.775299,696.256714 422.818451,702.020020 420.861572,707.783386 
	C417.364532,698.675964 415.174591,689.716125 412.825745,680.798218 
	C410.557220,672.185120 408.124847,663.615295 405.710541,654.417114 
	C405.658264,654.012939 405.605957,653.608765 405.792267,652.471497 
	C405.109772,650.657654 404.427277,648.843750 403.704315,646.418396 
	C403.650421,646.013794 403.596497,645.609131 403.780579,644.444336 
	C403.423462,643.016479 403.512756,640.887329 402.611816,640.313843 
	C400.978241,639.274048 398.747528,638.793030 396.781006,638.831970 
	C395.928528,638.848877 394.252136,640.909058 394.421509,641.741821 
	C395.463562,646.865173 396.926270,651.903015 398.322144,657.574646 
	C398.396881,657.973755 398.471588,658.372803 398.312622,659.612122 
	C398.606964,663.079041 399.809875,666.765015 399.036194,669.974426 
	C395.914246,682.925049 392.182526,695.728699 388.675934,708.586609 
	C388.263489,708.625610 387.851013,708.664673 387.438568,708.703735 
	C385.877502,702.540344 384.413574,696.350220 382.721405,690.223022 
	C381.585327,686.109436 380.125854,682.085144 378.753387,677.409668 
	C378.697998,677.004395 378.642609,676.599182 378.791534,675.393250 
	C377.834808,671.360596 376.969177,667.303528 375.893677,663.302795 
	C374.964417,659.846130 373.796661,656.453613 372.682648,652.422974 
	C372.631409,652.018555 372.580170,651.614136 372.762543,650.405579 
	C372.120331,647.332458 371.995209,643.998413 370.628632,641.290894 
	C369.889862,639.827148 367.073273,638.947205 365.109131,638.775574 
	C364.212555,638.697327 362.096558,641.140686 362.267181,642.146118 
	C363.339539,648.465210 364.899933,654.701416 366.331818,661.573853 
	C366.391327,661.975464 366.450806,662.377014 366.298035,663.580505 
	C367.659515,669.700989 369.006317,675.824707 370.385529,681.941223 
	C373.331909,695.007446 376.113068,708.115723 379.377441,721.102295 
	C380.209229,724.411194 382.596130,727.329163 385.097443,730.610535 
	C387.659485,730.578735 390.221558,730.546936 393.479950,730.670532 
M611.423462,512.829468 
	C619.605957,510.989563 628.446350,510.534241 635.835083,507.023682 
	C651.578735,499.543671 658.228149,485.405731 658.728455,468.491425 
	C659.039551,457.973206 656.042664,448.366058 648.772705,440.192108 
	C637.792969,427.847076 623.898071,423.508667 607.866272,423.533295 
	C538.406860,423.640045 468.947144,423.558777 399.487549,423.562408 
	C397.919556,423.562500 396.351532,423.758911 393.916473,423.921753 
	C410.203339,453.760864 410.118530,483.023987 393.698456,512.832642 
	C466.622650,512.832642 538.533508,512.832642 611.423462,512.829468 
M344.499329,318.412750 
	C402.384949,318.412750 460.270538,318.412750 519.393433,318.412750 
	C511.407349,303.856445 507.142609,289.492126 507.102417,274.172668 
	C507.062164,258.830322 512.093628,244.639099 518.937683,230.265518 
	C516.202759,230.265518 514.403931,230.265244 512.605103,230.265579 
	C494.941528,230.268967 477.277924,230.274872 459.614349,230.275452 
	C406.290344,230.277191 352.966187,230.210632 299.642365,230.310532 
	C278.836090,230.349503 262.652588,242.523621 256.892029,261.244690 
	C247.321899,292.346283 271.434845,319.485626 299.010559,318.512604 
	C313.822906,317.989960 328.668640,318.414551 344.499329,318.412750 
M550.566528,225.079865 
	C529.573181,244.700333 522.900635,268.479156 531.765442,295.699890 
	C543.090942,330.476807 582.031128,348.487335 616.397949,335.883545 
	C653.937256,322.116272 669.849426,277.230652 650.681458,242.960724 
	C641.806824,227.093872 628.820129,216.083527 611.499878,211.458328 
	C589.461914,205.573334 569.045105,210.195389 550.566528,225.079865 
M384.404602,480.699982 
	C386.058868,469.537872 385.678619,458.458862 381.915192,447.779480 
	C374.164978,425.787201 359.251068,411.364075 336.445679,405.285767 
	C320.110870,400.932037 304.363190,402.458405 289.497955,410.133057 
	C260.060944,425.330994 246.524963,462.501831 259.556458,493.433746 
	C269.617065,517.313843 291.881531,533.324646 317.968719,533.689575 
	C323.339905,533.764709 328.782898,532.668701 334.103912,531.648743 
	C352.060394,528.206665 365.764313,518.098877 375.354492,502.962433 
	C379.421448,496.543488 381.238770,488.699188 384.404602,480.699982 
M494.291870,714.663086 
	C495.873688,719.911926 497.360382,725.192017 499.072662,730.397949 
	C500.116119,733.570374 502.512268,736.033752 505.775055,734.407715 
	C507.540527,733.527893 509.028931,730.315063 509.056305,728.134766 
	C509.099030,724.731567 508.119659,721.201416 507.008606,717.916077 
	C498.396454,692.450867 489.610352,667.044556 480.987518,641.582947 
	C479.811707,638.110962 477.238159,638.344666 474.563629,638.338684 
	C472.105316,638.333252 469.836975,637.911316 468.666565,641.326721 
	C460.978882,663.759888 452.992554,686.090637 445.252258,708.506042 
	C443.255219,714.289429 441.523804,720.195862 440.169250,726.159119 
	C439.196808,730.440125 441.657196,734.223877 444.954224,734.757935 
	C449.491058,735.492798 451.692200,733.192505 452.670898,729.025757 
	C454.266083,722.234253 456.358673,715.537720 457.557220,708.681580 
	C458.546295,703.023560 461.883636,702.982910 466.200104,703.650696 
	C472.443726,704.616516 478.698242,705.963684 484.975037,706.129456 
	C490.630646,706.278870 493.187744,708.759521 494.291870,714.663086 
M525.594360,726.804993 
	C525.558594,720.480713 525.682983,714.150085 525.429382,707.834534 
	C525.266663,703.782288 526.209900,702.194153 530.792358,702.773438 
	C536.534180,703.499268 542.430969,703.526550 548.223328,703.196472 
	C555.998718,702.753418 562.144043,699.048462 566.063293,692.168152 
	C573.040466,679.919495 573.091736,666.990601 568.648193,654.104614 
	C566.197266,646.997070 561.368469,640.635437 553.462952,639.683044 
	C545.211060,638.688965 536.726135,639.599243 528.344177,639.742188 
	C526.741150,639.769470 524.951843,640.663086 523.575256,640.195251 
	C516.485046,637.786133 515.572388,638.269409 515.464294,645.711853 
	C515.077881,672.334473 514.737122,698.957764 514.387573,725.580872 
	C514.372314,726.743286 514.285095,727.936096 514.497681,729.064514 
	C515.265686,733.141235 518.479919,735.469604 522.465698,734.663147 
	C526.576355,733.831543 526.230347,730.731140 525.594360,726.804993 
M304.617432,654.790527 
	C303.901306,661.338501 305.790710,667.070496 310.596558,671.528687 
	C314.344025,675.005005 318.399170,678.179382 322.512085,681.225342 
	C329.697205,686.546326 337.734467,690.929688 344.136719,697.044067 
	C353.387543,705.878784 349.360016,717.504211 337.190765,720.754456 
	C328.665833,723.031433 321.175781,720.427673 313.506195,717.726746 
	C311.903198,717.162109 310.321655,716.536743 308.688263,715.923584 
	C306.405304,723.713013 306.407288,723.708313 313.083771,726.510803 
	C322.181519,730.329773 331.690460,731.041199 341.455170,730.858948 
	C348.727783,730.723145 353.812866,727.378601 357.552032,721.686401 
	C364.408173,711.249207 361.978363,696.516357 351.386322,687.532166 
	C345.861542,682.846069 339.274353,679.430359 333.301392,675.248901 
	C328.844818,672.129028 324.120148,669.165649 320.396362,665.286377 
	C316.296295,661.015259 315.863617,655.287903 318.302948,649.872620 
	C320.762207,644.413025 325.585541,641.977722 331.346954,642.643799 
	C338.213806,643.437683 344.970398,645.151184 351.822998,646.127625 
	C353.395050,646.351685 355.905365,645.703857 356.689819,644.565491 
	C358.378479,642.115051 356.406555,640.701965 354.114136,639.889648 
	C348.339417,637.843445 342.598602,635.696533 336.789398,633.753845 
	C319.915588,628.110901 305.734161,639.975891 304.617432,654.790527 
M580.807739,717.795288 
	C579.096497,722.413940 581.120605,724.772156 585.416199,726.444763 
	C596.073486,730.594604 607.075439,731.506104 618.313904,730.521484 
	C619.878906,730.384338 621.434937,729.495789 622.879395,728.735352 
	C636.852783,721.378540 636.376526,704.696716 630.566406,694.871948 
	C625.554993,686.397644 617.297607,681.644165 609.125366,676.777100 
	C604.017822,673.735168 598.851013,670.603821 594.372681,666.744629 
	C589.298279,662.371826 588.763977,656.143860 591.031616,650.192932 
	C593.248047,644.376404 598.472595,642.041077 604.360229,642.590515 
	C610.908264,643.201477 617.352966,644.855042 623.882935,645.765625 
	C625.847839,646.039673 629.008728,646.077209 629.777710,644.957092 
	C631.748047,642.087219 629.314209,640.663879 626.692810,639.691895 
	C622.338318,638.077209 618.157227,635.883972 613.701843,634.678345 
	C607.008118,632.867004 600.187622,630.878296 593.197266,633.698730 
	C577.839111,639.895508 569.798889,660.715576 587.373596,675.254028 
	C593.602112,680.406616 600.826782,684.357361 607.611267,688.834717 
	C613.227051,692.540833 618.370728,696.656189 621.030151,703.151062 
	C623.955627,710.295959 620.681946,717.940247 613.452087,719.913757 
	C608.227051,721.340088 602.994568,723.190552 597.387634,720.806580 
	C593.611267,719.201050 589.574280,718.162598 585.588440,717.120972 
	C584.207336,716.760132 582.629150,717.153625 580.807739,717.795288 
z" data-index="0" style="opacity: 1;"></path>

<path fill="#000000" opacity="1.000000" stroke="none" d="
M427.531342,1.000002 
	C427.127106,1.661108 426.296051,2.834476 425.375336,2.909623 
	C385.390991,6.173064 346.753815,15.563743 309.146179,29.139042 
	C269.529999,43.439362 232.496353,63.009464 198.313904,87.542877 
	C182.270691,99.057396 167.091522,111.941559 152.524246,125.299355 
	C138.398621,138.252182 124.839218,151.986389 112.323593,166.492554 
	C93.699203,188.079041 77.494423,211.516800 63.244610,236.296478 
	C45.733566,266.747253 31.399920,298.610138 21.583893,332.288147 
	C15.704980,352.458221 11.406257,373.120514 7.135262,393.714661 
	C4.901989,404.483185 4.275363,415.583923 2.867463,426.527466 
	C2.796846,427.076385 2.195811,427.557068 1.420873,428.034760 
	C1.000000,285.739594 1.000000,143.479172 1.000000,1.000000 
	C143.020813,1.000000 285.041748,1.000000 427.531342,1.000002 
z" data-index="2" style="opacity: 1; visibility: hidden;"></path>

<path fill="#000000" opacity="1.000000" stroke="none" d="
M1.000001,514.468628 
	C1.661152,514.873657 2.834758,515.705627 2.909726,516.626953 
	C6.165657,556.641052 15.441285,595.356689 29.191263,632.923340 
	C45.103928,676.398743 67.058426,716.687378 95.034027,753.718628 
	C110.757332,774.531616 127.785828,794.135437 146.681839,812.031006 
	C172.036240,836.043091 199.792679,856.990234 229.778015,874.972229 
	C252.500748,888.598816 276.202881,900.295715 300.876495,909.781677 
	C325.628510,919.297913 350.962189,927.289734 377.155121,931.921570 
	C393.035980,934.729919 409.071411,936.662109 425.029968,939.037781 
	C426.075653,939.193481 427.057922,939.774963 428.034851,940.579224 
	C285.739594,941.000000 143.479172,941.000000 1.000000,941.000000 
	C1.000000,798.979187 1.000000,656.958252 1.000001,514.468628 
z" data-index="4" style="opacity: 1; visibility: hidden;"></path>
<path fill="#FDFDFD" opacity="1.000000" stroke="none" d="
M610.933899,512.831055 
	C538.533508,512.832642 466.622650,512.832642 393.698456,512.832642 
	C410.118530,483.023987 410.203339,453.760864 393.916473,423.921753 
	C396.351532,423.758911 397.919556,423.562500 399.487549,423.562408 
	C468.947144,423.558777 538.406860,423.640045 607.866272,423.533295 
	C623.898071,423.508667 637.792969,427.847076 648.772705,440.192108 
	C656.042664,448.366058 659.039551,457.973206 658.728455,468.491425 
	C658.228149,485.405731 651.578735,499.543671 635.835083,507.023682 
	C628.446350,510.534241 619.605957,510.989563 610.933899,512.831055 
z" data-index="5" style="opacity: 1;"></path>
<path fill="#FDFDFD" opacity="1.000000" stroke="none" d="
M343.999329,318.412231 
	C328.668640,318.414551 313.822906,317.989960 299.010559,318.512604 
	C271.434845,319.485626 247.321899,292.346283 256.892029,261.244690 
	C262.652588,242.523621 278.836090,230.349503 299.642365,230.310532 
	C352.966187,230.210632 406.290344,230.277191 459.614349,230.275452 
	C477.277924,230.274872 494.941528,230.268967 512.605103,230.265579 
	C514.403931,230.265244 516.202759,230.265518 518.937683,230.265518 
	C512.093628,244.639099 507.062164,258.830322 507.102417,274.172668 
	C507.142609,289.492126 511.407349,303.856445 519.393433,318.412750 
	C460.270538,318.412750 402.384949,318.412750 343.999329,318.412231 
z" data-index="6"></path>
<path fill="#FDFCFD" opacity="1.000000" stroke="none" d="
M550.832947,224.852783 
	C569.045105,210.195389 589.461914,205.573334 611.499878,211.458328 
	C628.820129,216.083527 641.806824,227.093872 650.681458,242.960724 
	C669.849426,277.230652 653.937256,322.116272 616.397949,335.883545 
	C582.031128,348.487335 543.090942,330.476807 531.765442,295.699890 
	C522.900635,268.479156 529.573181,244.700333 550.832947,224.852783 
z" data-index="7" style="opacity: 1;"></path>
<path fill="#FDFDFD" opacity="1.000000" stroke="none" d="
M384.241577,481.101318 
	C381.238770,488.699188 379.421448,496.543488 375.354492,502.962433 
	C365.764313,518.098877 352.060394,528.206665 334.103912,531.648743 
	C328.782898,532.668701 323.339905,533.764709 317.968719,533.689575 
	C291.881531,533.324646 269.617065,517.313843 259.556458,493.433746 
	C246.524963,462.501831 260.060944,425.330994 289.497955,410.133057 
	C304.363190,402.458405 320.110870,400.932037 336.445679,405.285767 
	C359.251068,411.364075 374.164978,425.787201 381.915192,447.779480 
	C385.678619,458.458862 386.058868,469.537872 384.241577,481.101318 
z" data-index="8" style="opacity: 1;"></path>
<path fill="#F1F0F5" opacity="1.000000" stroke="none" d="
M494.133484,714.289429 
	C493.187744,708.759521 490.630646,706.278870 484.975037,706.129456 
	C478.698242,705.963684 472.443726,704.616516 466.200104,703.650696 
	C461.883636,702.982910 458.546295,703.023560 457.557220,708.681580 
	C456.358673,715.537720 454.266083,722.234253 452.670898,729.025757 
	C451.692200,733.192505 449.491058,735.492798 444.954224,734.757935 
	C441.657196,734.223877 439.196808,730.440125 440.169250,726.159119 
	C441.523804,720.195862 443.255219,714.289429 445.252258,708.506042 
	C452.992554,686.090637 460.978882,663.759888 468.666565,641.326721 
	C469.836975,637.911316 472.105316,638.333252 474.563629,638.338684 
	C477.238159,638.344666 479.811707,638.110962 480.987518,641.582947 
	C489.610352,667.044556 498.396454,692.450867 507.008606,717.916077 
	C508.119659,721.201416 509.099030,724.731567 509.056305,728.134766 
	C509.028931,730.315063 507.540527,733.527893 505.775055,734.407715 
	C502.512268,736.033752 500.116119,733.570374 499.072662,730.397949 
	C497.360382,725.192017 495.873688,719.911926 494.133484,714.289429 
M476.490295,696.984009 
	C480.583527,696.984009 484.676758,696.984009 489.236633,696.984009 
	C484.129883,682.914185 479.274017,669.535461 474.334503,655.926392 
	C470.002228,669.556702 465.794708,682.794495 461.284393,696.985046 
	C466.627411,696.985046 471.063477,696.985046 476.490295,696.984009 
z" data-index="9"></path>
<path fill="#FCFCFC" opacity="1.000000" stroke="none" d="
M366.510284,662.778625 
	C366.450806,662.377014 366.391327,661.975464 366.483582,660.953369 
	C365.934937,655.626160 365.046967,650.935852 364.632812,646.204041 
	C364.481750,644.477966 365.035278,641.425415 365.995728,641.094971 
	C369.396515,639.924988 369.786407,642.804626 370.368805,645.335266 
	C370.833038,647.352356 371.790466,649.255798 372.528961,651.209717 
	C372.580170,651.614136 372.631409,652.018555 372.537781,653.030396 
	C374.457672,661.156555 376.522461,668.675232 378.587250,676.193909 
	C378.642609,676.599182 378.697998,677.004395 378.632812,678.008362 
	C381.254181,689.981445 383.315094,701.557007 387.716858,713.629761 
	C388.967834,711.811890 389.507477,711.333252 389.667389,710.750427 
	C393.320435,697.436829 397.278320,684.190308 400.323822,670.737488 
	C401.153839,667.071045 399.214630,662.777588 398.546295,658.771912 
	C398.471588,658.372803 398.396881,657.973755 398.451385,656.967651 
	C397.745728,652.154358 396.749908,647.969421 396.189117,643.726929 
	C396.048950,642.666565 397.110229,640.682556 397.977448,640.448181 
	C399.051880,640.157715 400.733185,640.974731 401.717010,641.820007 
	C402.624756,642.599915 402.956909,644.049744 403.542603,645.204529 
	C403.596497,645.609131 403.650421,646.013794 403.552734,646.995239 
	C404.118683,649.449646 404.836182,651.327087 405.553650,653.204590 
	C405.605957,653.608765 405.658264,654.012939 405.583862,655.022827 
	C409.295776,671.629700 413.122681,687.633667 416.983734,703.629456 
	C417.684601,706.533020 418.525452,709.402710 419.301666,712.288086 
	C419.902802,712.305786 420.503906,712.323547 421.105042,712.341248 
	C424.170410,705.228149 425.920044,697.688049 427.279633,690.021362 
	C427.312683,689.620667 427.345764,689.220032 427.712585,688.327759 
	C430.254730,680.242798 432.545258,672.672058 434.645142,665.048828 
	C436.291534,659.071899 437.701935,653.029907 439.217163,647.016846 
	C439.289917,646.621887 439.362701,646.226929 439.788025,645.327148 
	C440.362000,644.381958 440.468719,643.727844 440.824158,643.536987 
	C442.643311,642.560181 444.526581,641.702820 446.387421,640.803650 
	C446.739746,642.499817 447.491974,644.228333 447.357727,645.885071 
	C447.110138,648.940552 446.342133,651.953918 445.790985,654.984802 
	C445.745087,655.385742 445.699219,655.786682 445.306976,656.680176 
	C443.857849,662.104370 442.755066,667.036072 441.652313,671.967712 
	C441.624023,672.368286 441.595734,672.768799 441.249298,673.685425 
	C435.875946,692.967163 430.820740,711.732849 425.765503,730.498535 
	C423.197144,730.553894 420.628815,730.609253 417.473877,730.290649 
	C413.105316,716.862915 409.323334,703.809143 405.541351,690.755371 
	C405.083374,690.729187 404.625427,690.703003 404.167450,690.676758 
	C403.452271,693.462891 402.810089,696.270142 402.008972,699.031311 
	C398.961670,709.533997 395.863037,720.021851 392.783630,730.515198 
	C390.221558,730.546936 387.659485,730.578735 384.601074,730.175476 
	C380.415680,715.497192 376.753296,701.247070 373.027191,687.013550 
	C370.908752,678.921143 368.686035,670.856018 366.510284,662.778625 
z" data-index="10"></path>
<path fill="#F2F0F6" opacity="1.000000" stroke="none" d="
M525.631836,727.223694 
	C526.230347,730.731140 526.576355,733.831543 522.465698,734.663147 
	C518.479919,735.469604 515.265686,733.141235 514.497681,729.064514 
	C514.285095,727.936096 514.372314,726.743286 514.387573,725.580872 
	C514.737122,698.957764 515.077881,672.334473 515.464294,645.711853 
	C515.572388,638.269409 516.485046,637.786133 523.575256,640.195251 
	C524.951843,640.663086 526.741150,639.769470 528.344177,639.742188 
	C536.726135,639.599243 545.211060,638.688965 553.462952,639.683044 
	C561.368469,640.635437 566.197266,646.997070 568.648193,654.104614 
	C573.091736,666.990601 573.040466,679.919495 566.063293,692.168152 
	C562.144043,699.048462 555.998718,702.753418 548.223328,703.196472 
	C542.430969,703.526550 536.534180,703.499268 530.792358,702.773438 
	C526.209900,702.194153 525.266663,703.782288 525.429382,707.834534 
	C525.682983,714.150085 525.558594,720.480713 525.631836,727.223694 
M525.950195,689.307068 
	C532.409790,690.292053 539.147339,692.937378 545.270386,691.912231 
	C557.569702,689.852844 563.598755,677.498230 560.554138,663.803406 
	C556.885132,647.300354 539.561279,639.585571 526.924988,648.927917 
	C525.624146,649.889648 524.158020,651.775330 524.185608,653.204956 
	C524.412598,665.010254 524.974243,676.809082 525.950195,689.307068 
z" data-index="11"></path>
<path fill="#F2F0F5" opacity="1.000000" stroke="none" d="
M304.664642,654.358215 
	C305.734161,639.975891 319.915588,628.110901 336.789398,633.753845 
	C342.598602,635.696533 348.339417,637.843445 354.114136,639.889648 
	C356.406555,640.701965 358.378479,642.115051 356.689819,644.565491 
	C355.905365,645.703857 353.395050,646.351685 351.822998,646.127625 
	C344.970398,645.151184 338.213806,643.437683 331.346954,642.643799 
	C325.585541,641.977722 320.762207,644.413025 318.302948,649.872620 
	C315.863617,655.287903 316.296295,661.015259 320.396362,665.286377 
	C324.120148,669.165649 328.844818,672.129028 333.301392,675.248901 
	C339.274353,679.430359 345.861542,682.846069 351.386322,687.532166 
	C361.978363,696.516357 364.408173,711.249207 357.552032,721.686401 
	C353.812866,727.378601 348.727783,730.723145 341.455170,730.858948 
	C331.690460,731.041199 322.181519,730.329773 313.083771,726.510803 
	C306.407288,723.708313 306.405304,723.713013 308.688263,715.923584 
	C310.321655,716.536743 311.903198,717.162109 313.506195,717.726746 
	C321.175781,720.427673 328.665833,723.031433 337.190765,720.754456 
	C349.360016,717.504211 353.387543,705.878784 344.136719,697.044067 
	C337.734467,690.929688 329.697205,686.546326 322.512085,681.225342 
	C318.399170,678.179382 314.344025,675.005005 310.596558,671.528687 
	C305.790710,667.070496 303.901306,661.338501 304.664642,654.358215 
z" data-index="12"></path>
<path fill="#F2F0F5" opacity="1.000000" stroke="none" d="
M580.974365,717.498901 
	C582.629150,717.153625 584.207336,716.760132 585.588440,717.120972 
	C589.574280,718.162598 593.611267,719.201050 597.387634,720.806580 
	C602.994568,723.190552 608.227051,721.340088 613.452087,719.913757 
	C620.681946,717.940247 623.955627,710.295959 621.030151,703.151062 
	C618.370728,696.656189 613.227051,692.540833 607.611267,688.834717 
	C600.826782,684.357361 593.602112,680.406616 587.373596,675.254028 
	C569.798889,660.715576 577.839111,639.895508 593.197266,633.698730 
	C600.187622,630.878296 607.008118,632.867004 613.701843,634.678345 
	C618.157227,635.883972 622.338318,638.077209 626.692810,639.691895 
	C629.314209,640.663879 631.748047,642.087219 629.777710,644.957092 
	C629.008728,646.077209 625.847839,646.039673 623.882935,645.765625 
	C617.352966,644.855042 610.908264,643.201477 604.360229,642.590515 
	C598.472595,642.041077 593.248047,644.376404 591.031616,650.192932 
	C588.763977,656.143860 589.298279,662.371826 594.372681,666.744629 
	C598.851013,670.603821 604.017822,673.735168 609.125366,676.777100 
	C617.297607,681.644165 625.554993,686.397644 630.566406,694.871948 
	C636.376526,704.696716 636.852783,721.378540 622.879395,728.735352 
	C621.434937,729.495789 619.878906,730.384338 618.313904,730.521484 
	C607.075439,731.506104 596.073486,730.594604 585.416199,726.444763 
	C581.120605,724.772156 579.096497,722.413940 580.974365,717.498901 
z" data-index="13"></path>
<path fill="#B8ACCF" opacity="1.000000" stroke="none" d="
M398.429443,659.192017 
	C399.214630,662.777588 401.153839,667.071045 400.323822,670.737488 
	C397.278320,684.190308 393.320435,697.436829 389.667389,710.750427 
	C389.507477,711.333252 388.967834,711.811890 387.716858,713.629761 
	C383.315094,701.557007 381.254181,689.981445 378.661621,678.313965 
	C380.125854,682.085144 381.585327,686.109436 382.721405,690.223022 
	C384.413574,696.350220 385.877502,702.540344 387.438568,708.703735 
	C387.851013,708.664673 388.263489,708.625610 388.675934,708.586609 
	C392.182526,695.728699 395.914246,682.925049 399.036194,669.974426 
	C399.809875,666.765015 398.606964,663.079041 398.429443,659.192017 
z" data-index="14"></path>
<path fill="#B8ACCF" opacity="1.000000" stroke="none" d="
M393.131775,730.592896 
	C395.863037,720.021851 398.961670,709.533997 402.008972,699.031311 
	C402.810089,696.270142 403.452271,693.462891 404.167450,690.676758 
	C404.625427,690.703003 405.083374,690.729187 405.541351,690.755371 
	C409.323334,703.809143 413.105316,716.862915 417.049164,730.234863 
	C415.893768,728.997681 413.878754,727.638733 413.376404,725.853943 
	C410.782227,716.637512 408.579468,707.311096 406.224060,698.027100 
	C406.074585,697.437866 405.789185,696.883179 405.068420,695.031555 
	C403.133514,701.406982 401.472839,706.634705 399.967804,711.906799 
	C398.473480,717.141174 397.212494,722.442871 395.668457,727.661560 
	C395.336853,728.782349 394.229797,729.673584 393.131775,730.592896 
z" data-index="15"></path>
<path fill="#B8ACCF" opacity="1.000000" stroke="none" d="
M427.005920,690.257324 
	C425.920044,697.688049 424.170410,705.228149 421.105042,712.341248 
	C420.503906,712.323547 419.902802,712.305786 419.301666,712.288086 
	C418.525452,709.402710 417.684601,706.533020 416.983734,703.629456 
	C413.122681,687.633667 409.295776,671.629700 405.610809,655.327515 
	C408.124847,663.615295 410.557220,672.185120 412.825745,680.798218 
	C415.174591,689.716125 417.364532,698.675964 420.861572,707.783386 
	C422.818451,702.020020 424.775299,696.256714 427.005920,690.257324 
z" data-index="16"></path>
<path fill="#B8ACCF" opacity="1.000000" stroke="none" d="
M366.404175,663.179565 
	C368.686035,670.856018 370.908752,678.921143 373.027191,687.013550 
	C376.753296,701.247070 380.415680,715.497192 384.186646,730.083618 
	C382.596130,727.329163 380.209229,724.411194 379.377441,721.102295 
	C376.113068,708.115723 373.331909,695.007446 370.385529,681.941223 
	C369.006317,675.824707 367.659515,669.700989 366.404175,663.179565 
z" data-index="17"></path>
<path fill="#B8ACCF" opacity="1.000000" stroke="none" d="
M426.113953,730.511353 
	C430.820740,711.732849 435.875946,692.967163 441.192810,673.981323 
	C440.120758,680.542175 439.021667,687.380066 437.396881,694.090698 
	C435.098938,703.581726 432.501099,713.003723 429.838806,722.400757 
	C429.045013,725.202576 427.605835,727.821472 426.113953,730.511353 
z" data-index="18"></path>
<path fill="#B8ACCF" opacity="1.000000" stroke="none" d="
M372.645752,650.807617 
	C371.790466,649.255798 370.833038,647.352356 370.368805,645.335266 
	C369.786407,642.804626 369.396515,639.924988 365.995728,641.094971 
	C365.035278,641.425415 364.481750,644.477966 364.632812,646.204041 
	C365.046967,650.935852 365.934937,655.626160 366.467163,660.648926 
	C364.899933,654.701416 363.339539,648.465210 362.267181,642.146118 
	C362.096558,641.140686 364.212555,638.697327 365.109131,638.775574 
	C367.073273,638.947205 369.889862,639.827148 370.628632,641.290894 
	C371.995209,643.998413 372.120331,647.332458 372.645752,650.807617 
z" data-index="19"></path>
<path fill="#B8ACCF" opacity="1.000000" stroke="none" d="
M438.930298,647.246033 
	C437.701935,653.029907 436.291534,659.071899 434.645142,665.048828 
	C432.545258,672.672058 430.254730,680.242798 427.769348,688.031494 
	C428.693298,682.973022 429.691040,677.662231 431.141510,672.478149 
	C433.485596,664.099976 436.127411,655.805237 438.930298,647.246033 
z" data-index="20"></path>
<path fill="#B8ACCF" opacity="1.000000" stroke="none" d="
M446.085388,654.763550 
	C446.342133,651.953918 447.110138,648.940552 447.357727,645.885071 
	C447.491974,644.228333 446.739746,642.499817 446.387421,640.803650 
	C444.526581,641.702820 442.643311,642.560181 440.824158,643.536987 
	C440.468719,643.727844 440.362000,644.381958 439.877380,645.039551 
	C439.359070,641.777954 440.193695,639.010315 444.220886,638.467407 
	C449.175934,637.799316 450.678925,639.441406 449.411499,644.267090 
	C448.504761,647.719482 447.397552,651.119141 446.085388,654.763550 
z" data-index="21"></path>
<path fill="#B8ACCF" opacity="1.000000" stroke="none" d="
M403.661621,644.824463 
	C402.956909,644.049744 402.624756,642.599915 401.717010,641.820007 
	C400.733185,640.974731 399.051880,640.157715 397.977448,640.448181 
	C397.110229,640.682556 396.048950,642.666565 396.189117,643.726929 
	C396.749908,647.969421 397.745728,652.154358 398.414825,656.664917 
	C396.926270,651.903015 395.463562,646.865173 394.421509,641.741821 
	C394.252136,640.909058 395.928528,638.848877 396.781006,638.831970 
	C398.747528,638.793030 400.978241,639.274048 402.611816,640.313843 
	C403.512756,640.887329 403.423462,643.016479 403.661621,644.824463 
z" data-index="22"></path>
<path fill="#B8ACCF" opacity="1.000000" stroke="none" d="
M378.689392,675.793579 
	C376.522461,668.675232 374.457672,661.156555 372.563599,653.335327 
	C373.796661,656.453613 374.964417,659.846130 375.893677,663.302795 
	C376.969177,667.303528 377.834808,671.360596 378.689392,675.793579 
z" data-index="23"></path>
<path fill="#B8ACCF" opacity="1.000000" stroke="none" d="
M441.950806,671.741821 
	C442.755066,667.036072 443.857849,662.104370 445.247589,656.976929 
	C444.439484,661.692688 443.344391,666.604309 441.950806,671.741821 
z" data-index="24"></path>
<path fill="#B8ACCF" opacity="1.000000" stroke="none" d="
M405.672974,652.838013 
	C404.836182,651.327087 404.118683,649.449646 403.572968,647.301025 
	C404.427277,648.843750 405.109772,650.657654 405.672974,652.838013 
z" data-index="25"></path>
<path fill="#5D3F8B" opacity="1.000000" stroke="none" d="
M475.994934,696.984497 
	C471.063477,696.985046 466.627411,696.985046 461.284393,696.985046 
	C465.794708,682.794495 470.002228,669.556702 474.334503,655.926392 
	C479.274017,669.535461 484.129883,682.914185 489.236633,696.984009 
	C484.676758,696.984009 480.583527,696.984009 475.994934,696.984497 
z" data-index="26"></path>
<path fill="#593889" opacity="1.000000" stroke="none" d="
M525.692383,688.958496 
	C524.974243,676.809082 524.412598,665.010254 524.185608,653.204956 
	C524.158020,651.775330 525.624146,649.889648 526.924988,648.927917 
	C539.561279,639.585571 556.885132,647.300354 560.554138,663.803406 
	C563.598755,677.498230 557.569702,689.852844 545.270386,691.912231 
	C539.147339,692.937378 532.409790,690.292053 525.692383,688.958496 
z" data-index="27"></path>
</svg>