<svg version="1.1" id="Layer_1" xmlns="http://www.w3.org/2000/svg" xmlns:xlink="http://www.w3.org/1999/xlink" x="0px" y="0px"
	 width="100%" viewBox="0 0 1056 992" enable-background="new 0 0 1056 992" xml:space="preserve">
<path fill="#533083" opacity="1.000000" stroke="none" 
	d="
M499.000000,993.000000 
	C332.686890,993.000000 166.873779,993.000000 1.030335,993.000000 
	C1.030335,662.393860 1.030335,331.787750 1.030335,1.090823 
	C352.896515,1.090823 704.793030,1.090823 1056.844727,1.090823 
	C1056.844727,331.666595 1056.844727,662.333313 1056.844727,993.000000 
	C871.121033,993.000000 685.310486,993.000000 499.000000,993.000000 
M590.500610,449.657928 
	C544.620056,449.657928 498.739471,449.657928 451.738007,449.657928 
	C459.892792,464.144928 464.080322,478.704773 464.171936,494.137329 
	C464.264618,509.750366 459.540253,524.293884 451.918915,538.564087 
	C454.191650,538.683899 455.797455,538.842529 457.403259,538.842651 
	C528.043274,538.846069 598.684448,539.013672 669.321899,538.585876 
	C677.521179,538.536316 686.356689,536.564392 693.753357,533.065552 
	C709.502869,525.615662 716.194336,511.507568 716.725952,494.586700 
	C717.056580,484.063385 714.109558,474.427734 706.834045,466.267273 
	C696.416626,454.582764 683.326477,449.553741 667.971497,449.573517 
	C642.481201,449.606293 616.990967,449.630737 590.500610,449.657928 
M495.500153,256.261139 
	C450.030121,256.259369 404.559540,256.155426 359.090637,256.381348 
	C353.216339,256.410522 347.080109,257.353882 341.533234,259.245911 
	C326.966827,264.214478 317.452362,274.630402 314.193359,289.612457 
	C310.905518,304.727234 312.882629,319.025085 324.515625,330.740662 
	C334.048035,340.340820 345.246918,344.620239 358.927612,344.564056 
	C429.879211,344.272705 500.832672,344.422211 571.785461,344.395874 
	C573.318054,344.395325 574.850464,344.129852 577.201477,343.912170 
	C560.832581,314.448242 561.798828,285.548157 577.130798,256.262817 
	C549.428223,256.262817 522.964233,256.262817 495.500153,256.261139 
M592.986084,271.374908 
	C584.715698,287.658020 583.889648,304.540802 589.679565,321.639587 
	C601.386780,356.213135 639.452087,374.490753 673.851013,362.104340 
	C707.952637,349.825043 725.338928,312.313354 712.812378,278.092194 
	C705.349792,257.705292 690.929199,243.405594 670.094055,237.562195 
	C640.198608,229.177750 607.874573,241.872406 592.986084,271.374908 
M341.058655,548.399353 
	C371.203552,569.633789 412.363617,560.172791 432.380676,530.716858 
	C452.006409,501.836639 444.940826,462.155579 416.619659,441.580414 
	C386.480408,419.684479 345.249878,427.094025 325.376709,455.308441 
	C303.594818,486.232635 310.278503,526.418640 341.058655,548.399353 
M496.747589,673.837036 
	C490.946655,694.089478 485.145721,714.341980 479.027374,735.702576 
	C477.677856,733.892639 477.096741,733.439331 476.955688,732.875916 
	C474.132538,721.597595 471.337097,710.312134 468.584259,699.016418 
	C466.069000,688.695557 463.630035,678.356079 461.116699,668.034729 
	C460.321289,664.768433 457.632965,664.338562 455.232300,665.257751 
	C454.078766,665.699341 452.913330,668.165771 453.066498,669.572266 
	C453.496307,673.519470 454.504700,677.418396 455.474854,681.288818 
	C457.181763,688.098511 458.568024,694.690063 456.085785,701.828186 
	C453.367432,709.645325 451.779114,717.852356 449.621674,725.868835 
	C448.756836,729.082336 447.687592,732.240906 446.711395,735.424438 
	C444.945709,733.616455 444.067657,731.870117 443.616821,730.019714 
	C438.663208,709.688110 433.664185,689.366089 428.967834,668.974548 
	C428.054382,665.008484 425.783844,664.724365 422.793732,665.218445 
	C419.057495,665.835693 420.412659,668.592163 420.864471,670.719788 
	C423.385223,682.590210 425.895935,694.464233 428.593445,706.295227 
	C432.102203,721.684143 435.854004,737.017822 439.339294,752.411926 
	C440.213623,756.273682 442.615753,756.965759 445.956299,756.772705 
	C449.163177,756.587463 452.537476,757.590698 453.670624,752.707092 
	C455.657166,744.145691 458.228302,735.718750 460.612122,727.251648 
	C461.192841,725.188965 461.997314,723.189209 462.698914,721.160522 
	C464.168549,722.632446 464.598602,723.861023 464.918976,725.117554 
	C467.220459,734.144470 469.538330,743.167419 471.763824,752.213196 
	C472.484436,755.141907 473.795593,757.215332 477.179901,756.730957 
	C480.390533,756.271362 484.601288,758.634155 485.891296,752.912659 
	C487.386963,746.279297 489.746246,739.845825 491.460480,733.255310 
	C494.804352,720.399719 497.982849,707.500732 501.186005,694.608887 
	C503.307831,686.069336 505.337463,677.506958 507.442932,668.963318 
	C508.060638,666.456665 507.235809,665.239990 504.593323,664.950439 
	C499.814911,664.427002 498.750183,665.490845 496.747589,673.837036 
M539.407898,669.733154 
	C538.988281,666.414307 537.803345,664.218384 533.776123,664.255737 
	C530.053467,664.290222 527.104370,664.125732 526.143494,669.005615 
	C525.256653,673.509399 523.209106,677.785095 521.667175,682.159241 
	C515.556824,699.493103 509.378113,716.803284 503.370880,734.172791 
	C501.427185,739.792847 499.708588,745.513489 498.301178,751.289062 
	C497.179352,755.892700 499.292175,759.949341 502.569519,760.710999 
	C507.071136,761.757141 509.214111,760.187805 510.731567,754.420288 
	C512.462402,747.841919 514.443481,741.291321 515.566895,734.602844 
	C516.542542,728.794128 520.048889,729.079285 524.245667,729.671387 
	C530.989197,730.622742 537.723755,731.781311 544.504150,732.273804 
	C548.539490,732.566895 550.486145,734.320129 551.496887,737.981384 
	C553.085632,743.735901 554.802185,749.458191 556.611633,755.147400 
	C557.659302,758.441284 559.146301,761.629822 563.532471,760.636414 
	C567.792603,759.671631 567.457947,756.071960 567.023682,753.019775 
	C566.512512,749.426697 565.585632,745.842529 564.406982,742.402649 
	C556.187683,718.414734 547.856445,694.465210 539.407898,669.733154 
M591.913452,664.459290 
	C589.658752,665.015015 587.426758,665.716980 585.140808,666.071045 
	C583.790039,666.280334 582.186707,666.315308 580.985229,665.780640 
	C575.794800,663.471130 573.588623,664.693909 573.501404,670.439697 
	C573.086914,697.727539 572.701660,725.015991 572.440186,752.305603 
	C572.420715,754.339966 572.822021,757.238525 574.149597,758.223938 
	C576.137878,759.699707 579.141479,760.347168 581.670227,760.248230 
	C582.500183,760.215698 583.815796,756.777954 583.844299,754.881348 
	C583.954285,747.574585 583.719055,740.257874 583.435364,732.951843 
	C583.297974,729.415222 584.528748,728.365540 588.148987,728.694275 
	C594.096191,729.234314 600.120422,729.496277 606.078857,729.201782 
	C613.854553,728.817322 620.050232,725.157776 623.990906,718.289917 
	C631.001282,706.072327 631.103943,693.143555 626.723694,680.232300 
	C623.211426,669.879395 614.685364,664.401123 603.814148,664.295898 
	C600.153870,664.260437 596.492310,664.352722 591.913452,664.459290 
M395.276611,703.485718 
	C389.723236,699.606934 383.443146,696.438843 378.789673,691.680054 
	C372.095856,684.834717 374.047638,673.652771 382.089142,670.098572 
	C385.396210,668.636902 389.610992,668.369385 393.277039,668.777832 
	C398.992920,669.414612 404.565887,671.251221 410.261505,672.210999 
	C411.656250,672.445923 413.291687,671.252380 414.816467,670.715576 
	C414.236145,669.251953 414.046173,666.927246 413.014404,666.459534 
	C403.950867,662.350830 394.866211,658.138000 384.525635,658.491028 
	C374.720245,658.825867 368.193878,664.478271 364.537628,672.687439 
	C361.023590,680.577209 360.854980,689.223633 367.369476,696.090698 
	C371.549683,700.497192 376.541168,704.186035 381.416779,707.868530 
	C388.287781,713.058044 395.939697,717.342285 402.243317,723.120239 
	C409.247650,729.540283 408.398132,740.774658 401.087769,744.588074 
	C396.017151,747.233032 390.333923,749.077209 384.281311,747.302490 
	C378.466248,745.597473 372.615631,744.013672 366.777924,742.375916 
	C364.159760,749.115112 364.377777,749.569702 370.752380,752.337585 
	C380.315308,756.489929 390.361206,757.532043 400.586853,756.596497 
	C403.735077,756.308411 407.162994,755.258118 409.766205,753.515991 
	C419.286072,747.144897 422.137085,733.810974 416.807343,723.198853 
	C412.245728,714.116211 404.281738,708.768433 395.276611,703.485718 
M645.957214,662.480896 
	C632.468201,672.810547 631.181580,690.499756 646.510742,702.195496 
	C652.562195,706.812561 659.213501,710.643799 665.595337,714.827148 
	C671.222961,718.515991 676.368103,722.639221 679.029663,729.130188 
	C681.066284,734.096924 680.354919,741.236633 676.174866,743.135376 
	C670.794495,745.579285 664.616272,747.419067 658.792297,747.390076 
	C653.589478,747.364075 648.331970,744.631470 643.231873,742.734863 
	C640.131836,741.581970 638.890442,742.534424 638.381042,745.494141 
	C637.857422,748.536377 638.807800,750.366028 641.834534,751.695801 
	C652.996399,756.600037 664.648926,757.504700 676.581055,756.522217 
	C677.685547,756.431274 678.789490,755.865051 679.815491,755.360535 
	C695.230164,747.781372 694.337402,730.538086 688.417480,720.642639 
	C683.721436,712.793030 676.177124,708.205750 668.610535,703.644531 
	C663.645996,700.651733 658.471130,697.879456 653.963745,694.288818 
	C648.199707,689.697083 646.462769,682.315552 648.819031,676.355774 
	C650.921692,671.037415 656.354065,667.899841 664.128479,668.617676 
	C670.177856,669.176270 676.103760,670.973572 682.138062,671.853333 
	C684.031616,672.129517 687.099121,671.881775 687.882263,670.708069 
	C689.610413,668.118225 687.398254,666.692627 684.911072,665.776917 
	C680.555115,664.173096 676.375427,662.020264 671.939636,660.718323 
	C663.381409,658.206482 654.713074,656.435852 645.957214,662.480896 
z"/>
<path fill="#FDFDFE" opacity="1.000000" stroke="none" 
	d="
M591.000610,449.658325 
	C616.990967,449.630737 642.481201,449.606293 667.971497,449.573517 
	C683.326477,449.553741 696.416626,454.582764 706.834045,466.267273 
	C714.109558,474.427734 717.056580,484.063385 716.725952,494.586700 
	C716.194336,511.507568 709.502869,525.615662 693.753357,533.065552 
	C686.356689,536.564392 677.521179,538.536316 669.321899,538.585876 
	C598.684448,539.013672 528.043274,538.846069 457.403259,538.842651 
	C455.797455,538.842529 454.191650,538.683899 451.918915,538.564087 
	C459.540253,524.293884 464.264618,509.750366 464.171936,494.137329 
	C464.080322,478.704773 459.892792,464.144928 451.738007,449.657928 
	C498.739471,449.657928 544.620056,449.657928 591.000610,449.658325 
z"/>
<path fill="#FDFDFE" opacity="1.000000" stroke="none" 
	d="
M496.000183,256.261963 
	C522.964233,256.262817 549.428223,256.262817 577.130798,256.262817 
	C561.798828,285.548157 560.832581,314.448242 577.201477,343.912170 
	C574.850464,344.129852 573.318054,344.395325 571.785461,344.395874 
	C500.832672,344.422211 429.879211,344.272705 358.927612,344.564056 
	C345.246918,344.620239 334.048035,340.340820 324.515625,330.740662 
	C312.882629,319.025085 310.905518,304.727234 314.193359,289.612457 
	C317.452362,274.630402 326.966827,264.214478 341.533234,259.245911 
	C347.080109,257.353882 353.216339,256.410522 359.090637,256.381348 
	C404.559540,256.155426 450.030121,256.259369 496.000183,256.261963 
z"/>
<path fill="#FDFCFE" opacity="1.000000" stroke="none" 
	d="
M593.136597,271.033630 
	C607.874573,241.872406 640.198608,229.177750 670.094055,237.562195 
	C690.929199,243.405594 705.349792,257.705292 712.812378,278.092194 
	C725.338928,312.313354 707.952637,349.825043 673.851013,362.104340 
	C639.452087,374.490753 601.386780,356.213135 589.679565,321.639587 
	C583.889648,304.540802 584.715698,287.658020 593.136597,271.033630 
z"/>
<path fill="#FDFDFE" opacity="1.000000" stroke="none" 
	d="
M340.784729,548.164185 
	C310.278503,526.418640 303.594818,486.232635 325.376709,455.308441 
	C345.249878,427.094025 386.480408,419.684479 416.619659,441.580414 
	C444.940826,462.155579 452.006409,501.836639 432.380676,530.716858 
	C412.363617,560.172791 371.203552,569.633789 340.784729,548.164185 
z"/>
<path fill="#F1EEF6" opacity="1.000000" stroke="none" 
	d="
M496.885956,673.462158 
	C498.750183,665.490845 499.814911,664.427002 504.593323,664.950439 
	C507.235809,665.239990 508.060638,666.456665 507.442932,668.963318 
	C505.337463,677.506958 503.307831,686.069336 501.186005,694.608887 
	C497.982849,707.500732 494.804352,720.399719 491.460480,733.255310 
	C489.746246,739.845825 487.386963,746.279297 485.891296,752.912659 
	C484.601288,758.634155 480.390533,756.271362 477.179901,756.730957 
	C473.795593,757.215332 472.484436,755.141907 471.763824,752.213196 
	C469.538330,743.167419 467.220459,734.144470 464.918976,725.117554 
	C464.598602,723.861023 464.168549,722.632446 462.698914,721.160522 
	C461.997314,723.189209 461.192841,725.188965 460.612122,727.251648 
	C458.228302,735.718750 455.657166,744.145691 453.670624,752.707092 
	C452.537476,757.590698 449.163177,756.587463 445.956299,756.772705 
	C442.615753,756.965759 440.213623,756.273682 439.339294,752.411926 
	C435.854004,737.017822 432.102203,721.684143 428.593445,706.295227 
	C425.895935,694.464233 423.385223,682.590210 420.864471,670.719788 
	C420.412659,668.592163 419.057495,665.835693 422.793732,665.218445 
	C425.783844,664.724365 428.054382,665.008484 428.967834,668.974548 
	C433.664185,689.366089 438.663208,709.688110 443.616821,730.019714 
	C444.067657,731.870117 444.945709,733.616455 446.711395,735.424438 
	C447.687592,732.240906 448.756836,729.082336 449.621674,725.868835 
	C451.779114,717.852356 453.367432,709.645325 456.085785,701.828186 
	C458.568024,694.690063 457.181763,688.098511 455.474854,681.288818 
	C454.504700,677.418396 453.496307,673.519470 453.066498,669.572266 
	C452.913330,668.165771 454.078766,665.699341 455.232300,665.257751 
	C457.632965,664.338562 460.321289,664.768433 461.116699,668.034729 
	C463.630035,678.356079 466.069000,688.695557 468.584259,699.016418 
	C471.337097,710.312134 474.132538,721.597595 476.955688,732.875916 
	C477.096741,733.439331 477.677856,733.892639 479.027374,735.702576 
	C485.145721,714.341980 490.946655,694.089478 496.885956,673.462158 
z"/>
<path fill="#F2EFF7" opacity="1.000000" stroke="none" 
	d="
M539.484497,670.118286 
	C547.856445,694.465210 556.187683,718.414734 564.406982,742.402649 
	C565.585632,745.842529 566.512512,749.426697 567.023682,753.019775 
	C567.457947,756.071960 567.792603,759.671631 563.532471,760.636414 
	C559.146301,761.629822 557.659302,758.441284 556.611633,755.147400 
	C554.802185,749.458191 553.085632,743.735901 551.496887,737.981384 
	C550.486145,734.320129 548.539490,732.566895 544.504150,732.273804 
	C537.723755,731.781311 530.989197,730.622742 524.245667,729.671387 
	C520.048889,729.079285 516.542542,728.794128 515.566895,734.602844 
	C514.443481,741.291321 512.462402,747.841919 510.731567,754.420288 
	C509.214111,760.187805 507.071136,761.757141 502.569519,760.710999 
	C499.292175,759.949341 497.179352,755.892700 498.301178,751.289062 
	C499.708588,745.513489 501.427185,739.792847 503.370880,734.172791 
	C509.378113,716.803284 515.556824,699.493103 521.667175,682.159241 
	C523.209106,677.785095 525.256653,673.509399 526.143494,669.005615 
	C527.104370,664.125732 530.053467,664.290222 533.776123,664.255737 
	C537.803345,664.218384 538.988281,666.414307 539.484497,670.118286 
M541.835754,708.615173 
	C538.703125,699.626099 535.570435,690.637085 532.406433,681.557983 
	C528.055298,695.289551 523.803650,708.707397 519.391296,722.632080 
	C529.113403,722.632080 537.979553,722.632080 547.502014,722.632080 
	C545.540833,717.859558 543.794678,713.610291 541.835754,708.615173 
z"/>
<path fill="#F3EFF7" opacity="1.000000" stroke="none" 
	d="
M592.372437,664.422974 
	C596.492310,664.352722 600.153870,664.260437 603.814148,664.295898 
	C614.685364,664.401123 623.211426,669.879395 626.723694,680.232300 
	C631.103943,693.143555 631.001282,706.072327 623.990906,718.289917 
	C620.050232,725.157776 613.854553,728.817322 606.078857,729.201782 
	C600.120422,729.496277 594.096191,729.234314 588.148987,728.694275 
	C584.528748,728.365540 583.297974,729.415222 583.435364,732.951843 
	C583.719055,740.257874 583.954285,747.574585 583.844299,754.881348 
	C583.815796,756.777954 582.500183,760.215698 581.670227,760.248230 
	C579.141479,760.347168 576.137878,759.699707 574.149597,758.223938 
	C572.822021,757.238525 572.420715,754.339966 572.440186,752.305603 
	C572.701660,725.015991 573.086914,697.727539 573.501404,670.439697 
	C573.588623,664.693909 575.794800,663.471130 580.985229,665.780640 
	C582.186707,666.315308 583.790039,666.280334 585.140808,666.071045 
	C587.426758,665.716980 589.658752,665.015015 592.372437,664.422974 
M582.803894,710.221619 
	C583.637085,712.207336 584.158203,715.675781 585.356262,715.927917 
	C591.265381,717.171814 597.639404,719.047852 603.321106,717.954834 
	C616.108948,715.494629 622.202393,702.289978 618.156006,688.454102 
	C613.953979,674.086426 600.952942,667.381531 588.070862,672.937622 
	C583.924194,674.726135 581.552734,677.202515 581.970215,682.398132 
	C582.687378,691.324036 582.565186,700.317322 582.803894,710.221619 
z"/>
<path fill="#F3EFF7" opacity="1.000000" stroke="none" 
	d="
M395.609192,703.636841 
	C404.281738,708.768433 412.245728,714.116211 416.807343,723.198853 
	C422.137085,733.810974 419.286072,747.144897 409.766205,753.515991 
	C407.162994,755.258118 403.735077,756.308411 400.586853,756.596497 
	C390.361206,757.532043 380.315308,756.489929 370.752380,752.337585 
	C364.377777,749.569702 364.159760,749.115112 366.777924,742.375916 
	C372.615631,744.013672 378.466248,745.597473 384.281311,747.302490 
	C390.333923,749.077209 396.017151,747.233032 401.087769,744.588074 
	C408.398132,740.774658 409.247650,729.540283 402.243317,723.120239 
	C395.939697,717.342285 388.287781,713.058044 381.416779,707.868530 
	C376.541168,704.186035 371.549683,700.497192 367.369476,696.090698 
	C360.854980,689.223633 361.023590,680.577209 364.537628,672.687439 
	C368.193878,664.478271 374.720245,658.825867 384.525635,658.491028 
	C394.866211,658.138000 403.950867,662.350830 413.014404,666.459534 
	C414.046173,666.927246 414.236145,669.251953 414.816467,670.715576 
	C413.291687,671.252380 411.656250,672.445923 410.261505,672.210999 
	C404.565887,671.251221 398.992920,669.414612 393.277039,668.777832 
	C389.610992,668.369385 385.396210,668.636902 382.089142,670.098572 
	C374.047638,673.652771 372.095856,684.834717 378.789673,691.680054 
	C383.443146,696.438843 389.723236,699.606934 395.609192,703.636841 
z"/>
<path fill="#F2EFF7" opacity="1.000000" stroke="none" 
	d="
M646.231689,662.252991 
	C654.713074,656.435852 663.381409,658.206482 671.939636,660.718323 
	C676.375427,662.020264 680.555115,664.173096 684.911072,665.776917 
	C687.398254,666.692627 689.610413,668.118225 687.882263,670.708069 
	C687.099121,671.881775 684.031616,672.129517 682.138062,671.853333 
	C676.103760,670.973572 670.177856,669.176270 664.128479,668.617676 
	C656.354065,667.899841 650.921692,671.037415 648.819031,676.355774 
	C646.462769,682.315552 648.199707,689.697083 653.963745,694.288818 
	C658.471130,697.879456 663.645996,700.651733 668.610535,703.644531 
	C676.177124,708.205750 683.721436,712.793030 688.417480,720.642639 
	C694.337402,730.538086 695.230164,747.781372 679.815491,755.360535 
	C678.789490,755.865051 677.685547,756.431274 676.581055,756.522217 
	C664.648926,757.504700 652.996399,756.600037 641.834534,751.695801 
	C638.807800,750.366028 637.857422,748.536377 638.381042,745.494141 
	C638.890442,742.534424 640.131836,741.581970 643.231873,742.734863 
	C648.331970,744.631470 653.589478,747.364075 658.792297,747.390076 
	C664.616272,747.419067 670.794495,745.579285 676.174866,743.135376 
	C680.354919,741.236633 681.066284,734.096924 679.029663,729.130188 
	C676.368103,722.639221 671.222961,718.515991 665.595337,714.827148 
	C659.213501,710.643799 652.562195,706.812561 646.510742,702.195496 
	C631.181580,690.499756 632.468201,672.810547 646.231689,662.252991 
z"/>
<path fill="#5C3F89" opacity="1.000000" stroke="none" 
	d="
M541.942139,708.988098 
	C543.794678,713.610291 545.540833,717.859558 547.502014,722.632080 
	C537.979553,722.632080 529.113403,722.632080 519.391296,722.632080 
	C523.803650,708.707397 528.055298,695.289551 532.406433,681.557983 
	C535.570435,690.637085 538.703125,699.626099 541.942139,708.988098 
z"/>
<path fill="#593988" opacity="1.000000" stroke="none" 
	d="
M582.799683,709.751953 
	C582.565186,700.317322 582.687378,691.324036 581.970215,682.398132 
	C581.552734,677.202515 583.924194,674.726135 588.070862,672.937622 
	C600.952942,667.381531 613.953979,674.086426 618.156006,688.454102 
	C622.202393,702.289978 616.108948,715.494629 603.321106,717.954834 
	C597.639404,719.047852 591.265381,717.171814 585.356262,715.927917 
	C584.158203,715.675781 583.637085,712.207336 582.799683,709.751953 
z"/>
</svg>